<?xml version="1.0" encoding="utf-8"?>
<!-- Generator: Adobe Illustrator 15.0.0, SVG Export Plug-In . SVG Version: 6.00 Build 0)  -->
<!DOCTYPE svg PUBLIC "-//W3C//DTD SVG 1.1//EN" "http://www.w3.org/Graphics/SVG/1.1/DTD/svg11.dtd">
<svg version="1.1" id="Layer_1" xmlns="http://www.w3.org/2000/svg" xmlns:xlink="http://www.w3.org/1999/xlink" x="0px" y="0px"
	 width="640px" height="480px" viewBox="0 0 640 480" enable-background="new 0 0 640 480" xml:space="preserve">
<path fill="#FFFFFF" stroke="#000000" stroke-miterlimit="10" d="M420.5,307.5c0,6.627-5.373,12-12,12h-186c-6.627,0-12-5.373-12-12
	v-152c0-6.627,5.373-12,12-12h186c6.627,0,12,5.373,12,12V307.5z"/>
<path fill="#FFFFFF" stroke="#000000" stroke-miterlimit="10" d="M460.5,215.5c0,6.627-5.373,12-12,12h-129c-6.627,0-12-5.373-12-12
	v-116c0-6.627,5.373-12,12-12h129c6.627,0,12,5.373,12,12V215.5z"/>
<circle fill="#CED2DD" cx="237" cy="288" r="20"/>
<circle fill="#6B7798" cx="444.25" cy="103.25" r="10.25"/>
<circle fill="#06153E" cx="341.5" cy="197.5" r="75.5"/>
</svg>
